# xmcd
#
# Track frame offsets: 
#        225
#        88240
#        221520
#
# Disc length: 4432 seconds
#
# Revision: 2
# Processed by: cddbd v1.5.1PL2 Copyright (c) Steve Scherf et al.
# Submitted via: ExactAudioCopy v0.95b4
#
DISCID=25114d03
DTITLE=Sina Vodjani - Mahakala
DYEAR=1998
DGENRE=New Age
TTITLE0=Mahakala Part I
TTITLE1=Mahakala Part II
TTITLE2=Mahakala Part III
EXTD=YEAR: 1998
EXTT0=
EXTT1=
EXTT2=
PLAYORDER=
